# xmcd
#
# Track frame offsets: 
#        150
#        27361
#        42084
#        71337
#        79545
#        101727
#        123708
#        136116
#
# Disc length: 2416 seconds
#
# Revision: 0
# Processed by: cddbd v1.5.2PL0 Copyright (c) Steve Scherf et al.
# Submitted via: ExactAudioCopy v1.0b2
#
DISCID=62096e08
DTITLE=Talons - Hollow Realm
DYEAR=2010
DGENRE=Alternative
TTITLE0=St Mary Will Be The Death Of Us All
TTITLE1=Peter Pan
TTITLE2=In The Shadows Of Our Stilted Homes
TTITLE3=An Unexpected Future Event
TTITLE4=Iris
TTITLE5=Impala
TTITLE6=Great Railroads
TTITLE7=Hollow Depth
EXTD=
EXTT0=
EXTT1=
EXTT2=
EXTT3=
EXTT4=
EXTT5=
EXTT6=
EXTT7=
PLAYORDER=
